<svg width="80" height="80" viewBox="0 0 80 80" fill="none" xmlns="http://www.w3.org/2000/svg">
<circle cx="40" cy="40" r="40" fill="#09977C" fill-opacity="0.1"/>
<path d="M56.8708 21.164C55.8703 20.1372 54.3897 19.7547 53.0092 20.1573L20.816 29.519C19.3594 29.9237 18.327 31.0854 18.0489 32.5611C17.7647 34.063 18.7572 35.9696 20.0537 36.7668L30.1198 42.9536C31.1522 43.5878 32.4848 43.4288 33.3391 42.5671L44.8658 30.9686C45.4461 30.3646 46.4065 30.3646 46.9867 30.9686C47.5669 31.5525 47.5669 32.4987 46.9867 33.1027L35.44 44.7032C34.5836 45.5628 34.4236 46.9016 35.0538 47.9405L41.2043 58.1075C41.9246 59.3155 43.1651 60 44.5257 60C44.6858 60 44.8658 60 45.0259 59.9799C46.5865 59.7785 47.8271 58.7115 48.2872 57.2015L57.8311 25.0496C58.2513 23.6806 57.8712 22.1907 56.8708 21.164Z" fill="#00F6FF"/>
</svg>
