<svg width="100" height="100" viewBox="0 0 100 100" fill="none" xmlns="http://www.w3.org/2000/svg">
<circle cx="50" cy="50" r="50" fill="#09977C" fill-opacity="0.1"/>
<path fill-rule="evenodd" clip-rule="evenodd" d="M49.3202 74.7841C49.5971 74.9288 49.9067 75.0023 50.2162 74.9999C50.5258 74.9974 50.8329 74.9214 51.1122 74.7743L60.0319 70.0062C62.5614 68.6578 64.5421 67.1501 66.0875 65.3949C69.4474 61.5705 71.2822 56.6895 71.2495 51.6566L71.1438 35.055C71.1337 33.1428 69.8778 31.4365 68.0204 30.8163L51.4268 25.2489C50.4276 24.9106 49.3328 24.918 48.3513 25.2661L31.8206 31.032C29.9732 31.6768 28.74 33.3953 28.7501 35.3099L28.8558 51.8993C28.8885 56.9396 30.7862 61.7985 34.2015 65.5836C35.762 67.3144 37.7604 68.8 40.3175 70.1263L49.3202 74.7841ZM46.959 55.2723C47.3315 55.6302 47.8147 55.8068 48.2979 55.8019C48.7812 55.7994 49.2619 55.618 49.6293 55.2552L59.3771 45.6452C60.1095 44.922 60.1019 43.76 59.362 43.0466C58.6195 42.3332 57.424 42.3382 56.6916 43.0613L48.2702 51.3622L44.8222 48.0477C44.0797 47.3343 42.8867 47.3417 42.1518 48.0649C41.4194 48.7881 41.4269 49.9501 42.1694 50.6635L46.959 55.2723Z" fill="#00F6FF"/>
</svg>
