<svg width="64" height="64" viewBox="0 0 64 64" fill="none" xmlns="http://www.w3.org/2000/svg">
<circle cx="32" cy="32" r="32" fill="#09977C" fill-opacity="0.1"/>
<path d="M41.4696 35.7123C41.0552 36.1139 40.8648 36.6947 40.9592 37.2643L42.3816 45.1363C42.5016 45.8035 42.22 46.4787 41.6616 46.8643C41.1144 47.2643 40.3864 47.3123 39.7896 46.9923L32.7032 43.2963C32.4568 43.1651 32.1832 43.0947 31.9032 43.0867H31.4696C31.3192 43.1091 31.172 43.1571 31.0376 43.2307L23.9496 46.9443C23.5992 47.1203 23.2024 47.1827 22.8136 47.1203C21.8664 46.9411 21.2344 46.0387 21.3896 45.0867L22.8136 37.2147C22.908 36.6403 22.7176 36.0563 22.3032 35.6483L16.5256 30.0483C16.0424 29.5795 15.8744 28.8755 16.0952 28.2403C16.3096 27.6067 16.8568 27.1443 17.5176 27.0403L25.4696 25.8867C26.0744 25.8243 26.6056 25.4563 26.8776 24.9123L30.3816 17.7283C30.4648 17.5683 30.572 17.4211 30.7016 17.2963L30.8456 17.1843C30.9208 17.1011 31.0072 17.0323 31.1032 16.9763L31.2776 16.9123L31.5496 16.8003H32.2232C32.8248 16.8627 33.3544 17.2227 33.6312 17.7603L37.1816 24.9123C37.4376 25.4355 37.9352 25.7987 38.5096 25.8867L46.4616 27.0403C47.1336 27.1363 47.6952 27.6003 47.9176 28.2403C48.1272 28.8819 47.9464 29.5859 47.4536 30.0483L41.4696 35.7123Z" fill="#00F6FF"/>
</svg>
